<svg xmlns="http://www.w3.org/2000/svg" viewBox="0 0 849.1 250" width="849.1" height="250"><style>.a{fill:#465DAA;}.b{fill:#7EA0D3;}.c{fill:#364CA0;}</style><polygon points="102 102.8 36.6 102.8 36.6 98.6 97.9 98.6 97.9 37.4 102 37.4 " class="a"/><polygon points="211.4 102.8 146 102.8 146 37.4 150.1 37.4 150.1 98.6 211.4 98.6 " class="a"/><polygon points="150.1 211.5 146 211.5 146 146.1 211.4 146.1 211.4 150.3 150.1 150.3 " class="a"/><polygon points="102 211.5 97.9 211.5 97.9 150.3 36.6 150.3 36.6 146.1 102 146.1 " class="a"/><polygon points="114 113 30.2 113 30.2 108.9 109.9 108.9 109.9 23.9 114 23.9 " class="a"/><polygon points="219.8 113 136 113 136 23.9 140.1 23.9 140.1 108.9 219.8 108.9 " class="a"/><polygon points="140.1 226.1 136 226.1 136 137 219.8 137 219.8 141.1 140.1 141.1 " class="a"/><polygon points="114 226.1 109.9 226.1 109.9 141.1 30.2 141.1 30.2 137 114 137 " class="a"/><rect x="123.8" y="202.3" width="2.5" height="47.7" class="a"/><rect x="123.8" width="2.5" height="47.7" class="a"/><rect y="123.8" width="47.7" height="2.5" class="a"/><rect x="202.3" y="123.8" width="47.7" height="2.5" class="a"/><polygon points="185.3 83.9 176.7 75.3 176.7 92.5 " class="a"/><polygon points="178.1 93.9 195.3 93.9 186.7 85.3 " class="b"/><polygon points="163.2 83.9 154.6 75.3 154.6 92.5 " class="b"/><polygon points="156 93.9 173.3 93.9 164.7 85.3 " class="a"/><polygon points="173.3 73.8 156 73.8 164.7 82.5 " class="a"/><polygon points="166.1 83.9 174.7 92.5 174.7 75.3 " class="b"/><polygon points="163.2 61.8 154.6 53.2 154.6 70.4 " class="a"/><polygon points="164.7 63.2 156 71.8 173.3 71.8 " class="b"/><polygon points="62.5 83.9 71.1 75.3 71.1 92.5 " class="a"/><polygon points="69.7 93.9 52.5 93.9 61.1 85.3 " class="b"/><polygon points="84.5 83.9 93.1 75.3 93.1 92.5 " class="b"/><polygon points="91.7 93.9 74.5 93.9 83.1 85.3 " class="a"/><polygon points="74.5 73.8 91.7 73.8 83.1 82.5 " class="a"/><polygon points="81.7 83.9 73.1 92.5 73.1 75.3 " class="b"/><polygon points="84.5 61.8 93.1 53.2 93.1 70.4 " class="a"/><polygon points="83.1 63.2 91.7 71.8 74.5 71.8 " class="b"/><polygon points="185.4 164.9 176.8 173.5 176.8 156.3 " class="a"/><polygon points="178.2 154.9 195.4 154.9 186.8 163.5 " class="b"/><polygon points="163.3 164.9 154.7 173.5 154.7 156.3 " class="b"/><polygon points="156.2 154.9 173.4 154.9 164.8 163.5 " class="a"/><polygon points="173.4 174.9 156.2 174.9 164.8 166.3 " class="a"/><polygon points="166.2 164.9 174.8 156.3 174.8 173.5 " class="b"/><polygon points="163.3 186.9 154.7 195.5 154.7 178.3 " class="a"/><polygon points="164.8 185.5 156.2 176.9 173.4 176.9 " class="b"/><polygon points="62.6 164.9 71.2 173.5 71.2 156.3 " class="a"/><polygon points="69.8 154.9 52.6 154.9 61.2 163.5 " class="b"/><polygon points="84.6 164.9 93.2 173.5 93.2 156.3 " class="b"/><polygon points="91.8 154.9 74.6 154.9 83.2 163.5 " class="a"/><polygon points="74.6 174.9 91.8 174.9 83.2 166.3 " class="a"/><polygon points="81.8 164.9 73.2 156.3 73.2 173.5 " class="b"/><polygon points="84.6 186.9 93.2 195.5 93.2 178.3 " class="a"/><polygon points="83.2 185.5 91.8 176.9 74.6 176.9 " class="b"/><path d="M317.8 94.4c-7.1-1.1-18.9-4.1-18.9-12.9 0-7.5 7.9-12.9 18.8-12.9 10.4 0 18.8 5.8 18.8 12.9v0.7h4.9v-0.7c0-9.8-10.6-17.8-23.7-17.8 -13.7 0-23.7 7.5-23.7 17.8 0 9.4 7.9 15.4 23.6 17.8 13.7 2.1 20.7 6.8 20.7 13.9 0 8.1-8.7 13.9-20.6 13.9 -11.4 0-20.6-6.2-20.6-13.9v-0.6h-4.9v0.6c0 10.4 11.5 18.8 25.5 18.8 14.8 0 25.5-7.9 25.5-18.8C343.2 103.3 334.7 97 317.8 94.4z" class="c"/><path d="M373.9 65.1l-28.4 65.5h5.4l8.5-19.7h34.5l8.6 19.7h5.4l-28.4-65.5H373.9zM391.8 106h-30.2l15.1-34.8L391.8 106z" class="c"/><polygon points="464.9 122.1 421.2 65.4 421 65.1 416.4 65.1 416.4 130.7 421.3 130.7 421.3 73.6 465 130.4 465.2 130.7 469.8 130.7 469.8 65.1 464.9 65.1 " class="c"/><polygon points="534.4 65.1 478.8 65.1 478.8 70 504.2 70 504.2 130.7 509.1 130.7 509.1 70 534.4 70 " class="c"/><path d="M561.4 65.1h-5.6l-28.4 65.5h5.4l8.5-19.7h34.5l8.6 19.7h5.4L561.4 65.1zM573.8 106h-30.2l15.1-34.8L573.8 106z" class="c"/><path d="M641.9 68.6c7.8 0 15.1 3 20.6 8.4l0.5 0.5 3.5-3.5 -0.5-0.5c-6.5-6.4-15-9.9-24.1-9.9 -18.9 0-34.2 15.4-34.2 34.2s15.4 34.2 34.2 34.2c9.1 0 17.6-3.5 24.1-9.9l0.5-0.5 -3.5-3.5 -0.5 0.5c-5.5 5.4-12.8 8.4-20.6 8.4 -16.2 0-29.3-13.1-29.3-29.3C612.6 81.7 625.8 68.6 641.9 68.6z" class="c"/><path d="M697.3 65.1l-28.4 65.5h5.4l8.5-19.7h34.5l8.6 19.7h5.4l-28.4-65.5H697.3zM715.2 106H685l15.1-34.8L715.2 106z" class="c"/><path d="M759 94.4c-7.1-1.1-18.9-4.1-18.9-12.9 0-7.5 7.9-12.9 18.8-12.9 10.4 0 18.8 5.8 18.8 12.9v0.7h4.9v-0.7c0-9.8-10.6-17.8-23.7-17.8 -13.7 0-23.7 7.5-23.7 17.8 0 9.4 7.9 15.4 23.6 17.8 13.7 2.1 20.7 6.8 20.7 13.9 0 8.1-8.7 13.9-20.6 13.9 -11.4 0-20.6-6.2-20.6-13.9v-0.6h-4.9v0.6c0 10.4 11.5 18.8 25.5 18.8 14.8 0 25.5-7.9 25.5-18.8C784.4 103.3 775.9 97 759 94.4z" class="c"/><path d="M820.7 65.1h-5.6l-28.4 65.5h5.4l8.5-19.7h34.5l8.6 19.7h5.4L820.7 65.1zM833 106h-30.2l15.1-34.8L833 106z" class="c"/><path d="M298.9 162h-6.7v26.4h6.7c7.5 0 10.5-3.8 10.5-13.2C309.4 165.7 306.4 162 298.9 162zM298.7 187.4h-5.6V163h5.6c6.1 0 9.6 2 9.6 12.2C308.4 185.4 304.7 187.4 298.7 187.4z"/><path d="M333.9 187.4h-13.4v-11.9h11.3l0.1-0.1c0.1-0.2 0.1-0.5 0-0.7l-0.1-0.1h-11.3V163h13.1l0.1-0.1c0.1-0.2 0.1-0.5 0-0.7l-0.1-0.1h-14.1v26.4h14.4l0.1-0.1c0.1-0.2 0.1-0.5 0-0.7L333.9 187.4z"/><path d="M379.2 162L379.2 162 379.2 162c-0.2 0-0.4 0-0.6 0.1l-0.1 0 -10.5 17.4 -10.5-17.4 0-0.1 -0.1 0c-0.2-0.1-0.4-0.1-0.6-0.1l0-0.1 0 0.1c-0.1 0-0.2 0-0.4 0.1l-0.1 0.1v26.1l0.1 0.1c0 0 0.2 0.1 0.5 0.1 0.3 0 0.4-0.1 0.5-0.2l0-23.5 0-1.2 10.1 16.9 0 0.1 0.1 0c0.3 0.1 0.7 0.1 1 0l0.1 0 10.2-17 0 24.5 0 0.1c0 0.1 0.1 0.2 0.5 0.2 0.3 0 0.4-0.1 0.5-0.1l0.1-0.1v-26.1l-0.1-0.1C379.4 162 379.3 162 379.2 162z"/><path d="M391.4 162c-0.3 0-0.4 0.1-0.4 0.1l-0.1 0.1v26l0.1 0.1c0 0 0.2 0.1 0.4 0.1 0.2 0 0.3 0 0.4-0.1l0.1-0.1v-26l0-0.1C391.8 162.1 391.7 162 391.4 162z"/><path d="M409.6 174.6c-4.1-1-6.9-2-6.9-6.1 0-3.8 2.6-5.9 7.2-5.9 3.2 0 6 0.8 6 0.8l0.1 0 0.1-0.1c0.2-0.2 0.2-0.4 0.2-0.7v-0.2l-0.2-0.1c-0.1 0-2.6-0.8-6.4-0.8 -5.1 0-8.2 2.6-8.2 6.9 0 5.2 4.1 6.2 7.7 7.1 3.4 0.9 6.9 1.8 6.9 6.2 0 3.8-2.8 6-7.6 6 -3.6 0-6.5-1.2-6.5-1.2l-0.1-0.1 -0.1 0.1c-0.2 0.1-0.3 0.5-0.3 0.7v0.1l0.1 0.1c0.1 0.1 2.8 1.3 7.1 1.3 5.2 0 8.5-2.7 8.5-7C417.3 176.5 412.8 175.4 409.6 174.6z"/><path d="M441.2 187.4h-13.4v-11.9h11.3l0.1-0.1c0.1-0.2 0.1-0.5 0-0.7l-0.1-0.1h-11.3V163h13.1l0.1-0.1c0.1-0.2 0.1-0.5 0-0.7l-0.1-0.1h-14.1v26.4h14.4l0.1-0.1c0.1-0.2 0.1-0.5 0-0.7L441.2 187.4z"/><path d="M466.1 169.2c0-4.4-2.6-7.2-6.9-7.2h-8.7v26.2l0.1 0.1c0 0 0.2 0.1 0.4 0.1 0.3 0 0.4-0.1 0.4-0.1l0.1-0.1v-11.9h8.2l6.1 11.9 0 0.1c0 0 0.2 0.1 0.4 0.1 0.2 0 0.4-0.1 0.4-0.1l0.2-0.1 -6.2-12C464.1 175.5 466.1 172.9 466.1 169.2zM459.3 175.4h-7.8V163h7.8c3.6 0 5.8 2.4 5.8 6.2C465.1 173 462.9 175.4 459.3 175.4z"/><path d="M476.7 162c-0.3 0-0.4 0.1-0.4 0.1l-0.1 0.1v26l0.1 0.1c0 0 0.2 0.1 0.4 0.1 0.2 0 0.3 0 0.4-0.1l0.1-0.1v-26l0-0.1C477.1 162.1 477 162 476.7 162z"/><path d="M502.8 186.7L502.8 186.7l-0.2 0c0 0-2.2 1.1-5.9 1.1 -4 0-8.5-1.4-8.5-12.6 0-8.7 2.6-12.6 8.5-12.6 3.4 0 5.5 1 5.5 1l0.1 0.1 0.1-0.1c0.2-0.2 0.3-0.4 0.3-0.7v-0.1l-0.1-0.1c-0.1 0-2.1-1.1-6.1-1.1 -6.3 0-9.4 4.5-9.4 13.6 0 9.2 3 13.6 9.4 13.6 4.3 0 6.4-1.2 6.5-1.2l0.1-0.1v-0.1C503.2 187 503 186.8 502.8 186.7z"/><path d="M519.2 160.8l0.1 0 4.9-5.5 -0.1-0.1c-0.1-0.2-0.2-0.4-0.5-0.5l-0.1 0 -4.7 5.4 -0.1 0.1 0 0.1C518.8 160.6 518.9 160.8 519.2 160.8z"/><path d="M520.5 161.6c-6.4 0-9.6 4.6-9.6 13.6 0 9 3.2 13.6 9.6 13.6 6.4 0 9.6-4.6 9.6-13.6C530.2 166.2 526.9 161.6 520.5 161.6zM520.5 187.8c-5.7 0-8.6-4.2-8.6-12.6s2.9-12.6 8.6-12.6c5.7 0 8.6 4.2 8.6 12.6S526.3 187.8 520.5 187.8z"/><path d="M555.8 169.2c0-4.4-2.6-7.2-6.9-7.2h-8.7v26.2l0.1 0.1c0 0 0.2 0.1 0.4 0.1 0.3 0 0.4-0.1 0.4-0.1l0.1-0.1v-11.9h8.2l6.1 11.9 0 0.1c0 0 0.2 0.1 0.4 0.1 0.2 0 0.4-0.1 0.4-0.1l0.2-0.1 -6.2-12C553.8 175.5 555.8 172.9 555.8 169.2zM549 175.4h-7.8V163h7.8c3.6 0 5.8 2.4 5.8 6.2C554.8 173 552.6 175.4 549 175.4z"/><path d="M572.6 162h-6.7v26.4h6.7c7.5 0 10.5-3.8 10.5-13.2C583.2 165.7 580.2 162 572.6 162zM572.5 187.4h-5.6V163h5.6c6.1 0 9.6 2 9.6 12.2C582.2 185.4 578.5 187.4 572.5 187.4z"/><path d="M593.8 162c-0.3 0-0.4 0.1-0.4 0.1l-0.1 0.1v26l0.1 0.1c0 0 0.2 0.1 0.4 0.1 0.2 0 0.4 0 0.5-0.1l0.1-0.1v-25.9l0-0.1C594.2 162.1 594.1 162 593.8 162z"/><path d="M613.4 161.9c-0.1-0.1-0.3-0.1-0.5 0l-10.6 26.1 -0.1 0.2 0.2 0.1c0 0 0.2 0.1 0.4 0.1 0.3 0 0.4-0.1 0.4-0.1l0.1 0 3.3-8.1h13.1l3.2 8.1 0 0.1 0.1 0c0 0 0.2 0.1 0.4 0.1 0.2 0 0.4-0.1 0.4-0.1l0.2-0.1L613.4 161.9 613.4 161.9zM607 179.2l6.1-15.3 6.2 15.3H607z"/><path d="M650.9 162h-6.7v26.4h6.7c7.5 0 10.5-3.8 10.5-13.2C661.5 165.7 658.5 162 650.9 162zM650.8 187.4h-5.6V163h5.6c6.1 0 9.6 2 9.6 12.2C660.5 185.4 656.8 187.4 650.8 187.4z"/><path d="M686 187.4h-13.4v-11.9h11.3l0.1-0.1c0.1-0.2 0.1-0.5 0-0.7l-0.1-0.1h-11.3V163h13.1l0.1-0.1c0.1-0.2 0.1-0.5 0-0.7l-0.1-0.1h-14.1v26.4H686l0.1-0.1c0.1-0.2 0.1-0.5 0-0.7L686 187.4z"/><path d="M731.3 162L731.3 162 731.3 162c-0.2 0-0.4 0-0.6 0.1l-0.1 0L720 179.5l-10.5-17.4 0-0.1 -0.1 0c-0.2-0.1-0.4-0.1-0.6-0.1l0-0.1 0 0.1c-0.1 0-0.2 0-0.4 0.1l-0.1 0.1v26.1l0.1 0.1c0 0 0.2 0.1 0.5 0.1 0.3 0 0.4-0.1 0.5-0.2l0-23.5 0-1.2 10.1 16.9 0 0.1 0.1 0c0.3 0.1 0.7 0.1 1 0l0.1 0 10.2-17 0 24.5 0 0.1c0 0.1 0.1 0.2 0.5 0.2 0.3 0 0.4-0.1 0.4-0.1l0.1-0.1v-26.1l-0.1-0.1C731.5 162 731.4 162 731.3 162z"/><path d="M750.9 161.9c-0.1-0.1-0.3-0.1-0.5 0l-10.6 26.1 -0.1 0.2 0.2 0.1c0 0 0.2 0.1 0.4 0.1 0.3 0 0.4-0.1 0.4-0.1l0.1 0 3.3-8.1h13.1l3.2 8.1 0 0.1 0.1 0c0 0 0.2 0.1 0.4 0.1 0.2 0 0.4-0.1 0.4-0.1l0.2-0.1L750.9 161.9 750.9 161.9zM744.5 179.2l6.1-15.3 6.2 15.3H744.5z"/><path d="M783.7 186.7L783.7 186.7l-0.2 0c0 0-2.2 1.1-5.9 1.1 -4 0-8.5-1.4-8.5-12.6 0-8.7 2.6-12.6 8.5-12.6 3.4 0 5.5 1 5.5 1l0.1 0.1 0.1-0.1c0.2-0.2 0.3-0.4 0.3-0.7v-0.1l-0.1-0.1c-0.1 0-2.1-1.1-6.1-1.1 -6.3 0-9.4 4.5-9.4 13.6 0 9.2 3 13.6 9.4 13.6 4.3 0 6.4-1.2 6.5-1.2l0.1-0.1v-0.1C784.1 187 784 186.8 783.7 186.7z"/><path d="M807.4 187.4H794v-11.9h11.3l0.1-0.1c0.1-0.2 0.1-0.5 0-0.7l-0.1-0.1H794V163h13.1l0.1-0.1c0.1-0.2 0.1-0.5 0-0.7l-0.1-0.1H793v26.4h14.4l0.1-0.1c0.1-0.2 0.1-0.5 0-0.7L807.4 187.4z"/><path d="M817.2 162c-0.3 0-0.4 0.1-0.4 0.1l-0.1 0.1v26l0.1 0.1c0 0 0.2 0.1 0.4 0.1 0.2 0 0.3 0 0.4-0.1l0.1-0.1v-26l0-0.1C817.6 162.1 817.5 162 817.2 162z"/><path d="M836 160.8l0.1 0 4.9-5.5 -0.1-0.1c-0.1-0.2-0.2-0.4-0.5-0.5l-0.1 0 -4.7 5.4 -0.1 0.1 0 0.1C835.5 160.6 835.7 160.8 836 160.8z"/><path d="M837.3 161.6c-6.4 0-9.6 4.6-9.6 13.6 0 9 3.2 13.6 9.6 13.6 6.4 0 9.6-4.6 9.6-13.6C847 166.2 843.7 161.6 837.3 161.6zM837.3 187.8c-5.7 0-8.6-4.2-8.6-12.6s2.9-12.6 8.6-12.6c5.7 0 8.6 4.2 8.6 12.6S843.1 187.8 837.3 187.8z"/></svg>